<?xml version="1.0" encoding="UTF-8" standalone="no"?>
<!-- Created with Inkscape (http://www.inkscape.org/) -->

<svg
   xmlns:dc="http://purl.org/dc/elements/1.1/"
   xmlns:cc="http://creativecommons.org/ns#"
   xmlns:rdf="http://www.w3.org/1999/02/22-rdf-syntax-ns#"
   xmlns:svg="http://www.w3.org/2000/svg"
   xmlns="http://www.w3.org/2000/svg"
   xmlns:sodipodi="http://sodipodi.sourceforge.net/DTD/sodipodi-0.dtd"
   xmlns:inkscape="http://www.inkscape.org/namespaces/inkscape"
   width="516.02515"
   height="516.02515"
   viewBox="0 0 136.53165 136.53166"
   version="1.1"
   id="svg858"
   inkscape:version="0.92.5 (2060ec1f9f, 2020-04-08)"
   sodipodi:docname="sprout.svg">
  <defs
     id="defs852" />
  <sodipodi:namedview
     id="base"
     pagecolor="#ffffff"
     bordercolor="#666666"
     borderopacity="1.0"
     inkscape:pageopacity="0.0"
     inkscape:pageshadow="2"
     inkscape:zoom="0.49497475"
     inkscape:cx="-170.95182"
     inkscape:cy="318.96657"
     inkscape:document-units="mm"
     inkscape:current-layer="layer1"
     showgrid="false"
     inkscape:window-width="1366"
     inkscape:window-height="715"
     inkscape:window-x="-8"
     inkscape:window-y="-8"
     inkscape:window-maximized="1"
     units="px"
     fit-margin-top="0"
     fit-margin-left="0"
     fit-margin-right="0"
     fit-margin-bottom="0" />
  <metadata
     id="metadata855">
    <rdf:RDF>
      <cc:Work
         rdf:about="">
        <dc:format>image/svg+xml</dc:format>
        <dc:type
           rdf:resource="http://purl.org/dc/dcmitype/StillImage" />
        <dc:title></dc:title>
      </cc:Work>
    </rdf:RDF>
  </metadata>
  <g
     inkscape:label="Layer 1"
     inkscape:groupmode="layer"
     id="layer1"
     transform="translate(-29.788717,-68.467012)">
    <rect
       style="opacity:1;fill:#ff7f2a;fill-opacity:1;stroke:#ff7f2a;stroke-width:1.06500006;stroke-miterlimit:4;stroke-dasharray:none;stroke-opacity:1"
       id="rect1403"
       width="135.46666"
       height="135.46666"
       x="30.321217"
       y="68.999512"
       rx="7.9375" />
    <path
       style="opacity:0.21600001;fill:#000000;fill-opacity:1;stroke:#000000;stroke-width:4.02519703;stroke-miterlimit:4;stroke-dasharray:none;stroke-opacity:1"
       d="m 363.6543,370.08203 -12.08985,36.26563 18.17578,92.77343 6.06641,61.22461 -160.89258,110.9336 140.59961,101.50586 h 241.08594 c 16.62,0 30,-13.38 30,-30 V 452.58789 L 459.80859,384.4375 Z"
       transform="scale(0.26458333)"
       id="rect1590"
       inkscape:connector-curvature="0" />
    <g
       id="g1574">
      <path
         inkscape:connector-curvature="0"
         id="path1424"
         d="m 98.126268,94.010118 c -1.853182,0.0631 -3.490079,0.59612 -4.541588,1.61296 -2.1792,2.10738 -4.585771,9.196772 -4.608056,13.576572 -0.0091,1.8006 1.001079,5.79407 2.244944,8.87431 5.596066,13.85777 6.303442,16.61121 6.250428,24.33299 -0.08229,12.00282 -0.318855,12.38856 -8.578084,13.94158 -9.390319,1.76569 -19.019425,6.45836 -22.312142,10.87469 -2.436418,3.26785 -3.174417,5.91284 -2.072152,7.43468 0.277274,0.38273 15.895222,0.69535 34.705152,0.69535 36.57309,0 36.03769,0.0802 34.03611,-5.08355 -1.96576,-5.07125 -14.39439,-12.04001 -23.73002,-13.30537 -7.69122,-1.04248 -7.58278,-0.86142 -7.13362,-11.73727 0.45208,-10.947 -0.47401,-15.65996 -5.200309,-26.45981 -2.618412,-5.98358 -3.025874,-7.65717 -2.609752,-10.71972 0.56452,-4.15464 2.85833,-6.8209 5.867881,-6.8209 2.8519,0 3.63919,2.56824 3.63919,11.8698 0,4.30701 0.36204,9.1542 0.80346,10.77071 1.94878,7.13655 11.29552,15.84204 17.36291,16.17034 2.6183,0.14158 3.50268,-0.42483 6.06136,-3.87436 2.85054,-3.84302 2.99525,-4.35031 2.99525,-10.48116 0,-10.91521 -3.38426,-20.39141 -8.46435,-23.70085 -1.37518,-0.89587 -5.07241,-2.118702 -8.21623,-2.718172 -3.14382,-0.59947 -7.22728,-2.03844 -9.07433,-3.19533 -2.30435,-1.4433 -5.04338,-2.13863 -7.426052,-2.05749 z"
         style="fill:#afcf57;stroke-width:0.88853496" />
    </g>
    <path
       style="fill:#a6cb2c;stroke-width:0.8885349"
       d="m 99.863671,97.590942 c -0.2222,-0.0048 -0.437018,-0.004 -0.644406,0.0021 -2.765161,0.0806 -4.209561,1.125275 -4.209561,3.111438 0,1.45818 0.224565,1.4616 2.231903,0.0284 5.487753,-3.918061 7.591033,-0.759497 7.615043,11.42979 0.0113,5.91692 0.43352,9.64337 1.43143,12.67726 2.01715,6.13274 7.99356,11.93703 14.21826,13.80691 v -0.002 c 3.61758,1.08672 4.55914,0.62172 7.58713,-3.74603 2.19306,-3.16343 2.45773,-4.19322 2.45773,-9.57771 0,-14.22089 -5.1768,-23.13756 -14.24977,-24.54114 -2.35215,-0.3639 -7.16958,-1.390794 -10.70478,-2.283575 -2.26068,-0.570921 -4.17759,-0.871559 -5.732979,-0.90537 z m -8.303887,5.492688 c -0.24302,0.003 -0.603092,1.03863 -1.069184,3.08611 -1.099013,4.8279 -1.523185,3.19742 5.92987,22.72368 1.724324,4.51758 1.986029,6.43961 1.946651,14.272 -0.02709,5.40309 -0.410805,9.65721 -0.951362,10.55646 -0.498041,0.82849 -2.655671,1.79354 -4.795573,2.14354 -4.450556,0.72775 -13.892686,3.59496 -16.137001,4.89996 -0.831821,0.48367 -2.783977,1.47296 -4.33927,2.19831 -3.223043,1.50313 -8.567414,8.4957 -7.801072,10.20765 v 0.002 c 0.709125,1.58222 69.232987,1.60813 69.232987,0.0243 0,-2.86202 -1.98011,-5.45037 -6.658,-8.70283 -4.82704,-3.35614 -17.33601,-7.90612 -21.87515,-7.95662 -1.15101,-0.0135 -2.83138,-0.83515 -3.73362,-1.82728 -1.52646,-1.67859 -1.58615,-2.22371 -0.86403,-7.85275 1.11431,-8.68578 0.23925,-14.25098 -3.980117,-25.3199 -3.881978,-10.18378 -4.309645,-12.66403 -2.843239,-16.46411 0.77992,-2.02114 0.744304,-2.1251 -0.314709,-0.91933 -1.006962,1.1465 -1.243261,1.06451 -1.502233,-0.52193 -0.05067,-0.31014 -0.117115,-0.48853 -0.197921,-0.5364 -0.01516,-0.009 -0.03082,-0.0131 -0.04703,-0.0129 z"
       id="path1422"
       inkscape:connector-curvature="0" />
    <path
       style="fill:#7bb628;stroke-width:0.8885349"
       d="m 105.82093,106.97073 -0.55656,6.42752 c -0.45686,5.27646 -0.29008,7.26289 0.93173,11.07632 2.06957,6.45947 7.95393,12.28146 14.31024,14.15779 3.38078,0.99801 5.48049,0.44974 6.04356,-1.57613 0.55872,-2.01019 0.29844,-2.2339 -4.64365,-4.01112 -4.89285,-1.75955 -10.15186,-6.32789 -12.47986,-10.84172 -0.86032,-1.66817 -2.02373,-5.77834 -2.58485,-9.13329 z m -7.455359,46.79198 c -0.454705,0.0267 -0.88477,0.19867 -1.345655,0.50591 -0.897284,0.59817 -3.163245,1.36987 -5.034833,1.71514 -4.341376,0.80108 -13.531694,3.63599 -15.501898,4.78162 -0.831821,0.48367 -2.783977,1.47296 -4.33927,2.19831 -3.223043,1.50313 -8.567414,8.4957 -7.801072,10.20765 v 0.002 c 0.709125,1.58222 69.232987,1.60817 69.232987,0.0243 0,-2.86202 -1.98011,-5.45037 -6.658,-8.70283 -4.70461,-3.27105 -17.37967,-7.9344 -21.56922,-7.9344 -0.98312,0 -2.89303,-0.76039 -4.24315,-1.69034 -1.155805,-0.79604 -1.982017,-1.15194 -2.739889,-1.10742 z"
       id="path1420"
       inkscape:connector-curvature="0" />
    <path
       style="fill:#552200;stroke-width:1.20523429"
       d="m 97.561076,147.62316 c -0.05713,-5.3e-4 -0.113591,10e-4 -0.170016,0.006 v -5.3e-4 c -0.541653,0.0411 -1.053489,0.30628 -1.602486,0.78083 -1.068869,0.92391 -3.768119,2.11616 -5.997567,2.64945 -5.171527,1.2373 -16.119128,5.61557 -18.466057,7.38508 -0.99088,0.74704 -3.316507,2.27532 -5.169193,3.39566 -3.839324,2.32168 -10.205844,13.12227 -9.292971,15.76648 v 0.003 c 0.844725,2.44382 82.471964,2.48411 82.471964,0.0377 0,-4.42055 -2.35946,-8.41849 -7.93181,-13.44208 -5.60419,-5.05235 -20.70288,-12.25506 -25.69352,-12.25506 -1.1711,0 -3.44618,-1.17536 -5.05448,-2.61173 -1.290766,-1.15268 -2.236831,-1.7065 -3.093864,-1.71462 z"
       id="path1420-3"
       inkscape:connector-curvature="0" />
  </g>
</svg>
