<?xml version="1.0" encoding="UTF-8" standalone="no"?>
<!-- Created with Inkscape (http://www.inkscape.org/) -->

<svg
   xmlns:dc="http://purl.org/dc/elements/1.1/"
   xmlns:cc="http://creativecommons.org/ns#"
   xmlns:rdf="http://www.w3.org/1999/02/22-rdf-syntax-ns#"
   xmlns:svg="http://www.w3.org/2000/svg"
   xmlns="http://www.w3.org/2000/svg"
   xmlns:sodipodi="http://sodipodi.sourceforge.net/DTD/sodipodi-0.dtd"
   xmlns:inkscape="http://www.inkscape.org/namespaces/inkscape"
   width="136.53166mm"
   height="136.53166mm"
   viewBox="0 0 136.53166 136.53166"
   version="1.1"
   id="svg8"
   inkscape:version="0.92.5 (2060ec1f9f, 2020-04-08)"
   sodipodi:docname="USV-icon.svg">
  <defs
     id="defs2">
    <inkscape:path-effect
       effect="bspline"
       id="path-effect930"
       is_visible="true"
       weight="33.333333"
       steps="2"
       helper_size="0"
       apply_no_weight="true"
       apply_with_weight="true"
       only_selected="false" />
    <inkscape:path-effect
       effect="simplify"
       id="path-effect924"
       is_visible="true"
       steps="1"
       threshold="0.0131818"
       smooth_angles="360"
       helper_size="0"
       simplify_individual_paths="false"
       simplify_just_coalesce="false"
       simplifyindividualpaths="false"
       simplifyJustCoalesce="false" />
    <inkscape:path-effect
       effect="simplify"
       id="path-effect920"
       is_visible="true"
       steps="1"
       threshold="0.0131818"
       smooth_angles="360"
       helper_size="0"
       simplify_individual_paths="false"
       simplify_just_coalesce="false"
       simplifyindividualpaths="false"
       simplifyJustCoalesce="false" />
    <inkscape:path-effect
       effect="bspline"
       id="path-effect930-3"
       is_visible="true"
       weight="33.333333"
       steps="2"
       helper_size="0"
       apply_no_weight="true"
       apply_with_weight="true"
       only_selected="false" />
    <inkscape:path-effect
       effect="bspline"
       id="path-effect930-3-7"
       is_visible="true"
       weight="33.333333"
       steps="2"
       helper_size="0"
       apply_no_weight="true"
       apply_with_weight="true"
       only_selected="false" />
    <inkscape:path-effect
       effect="bspline"
       id="path-effect930-3-7-2"
       is_visible="true"
       weight="33.333333"
       steps="2"
       helper_size="0"
       apply_no_weight="true"
       apply_with_weight="true"
       only_selected="false" />
    <inkscape:path-effect
       effect="bspline"
       id="path-effect930-3-7-2-8"
       is_visible="true"
       weight="33.333333"
       steps="2"
       helper_size="0"
       apply_no_weight="true"
       apply_with_weight="true"
       only_selected="false" />
    <inkscape:path-effect
       effect="bspline"
       id="path-effect930-3-7-2-8-4"
       is_visible="true"
       weight="33.333333"
       steps="2"
       helper_size="0"
       apply_no_weight="true"
       apply_with_weight="true"
       only_selected="false" />
    <inkscape:path-effect
       effect="bspline"
       id="path-effect930-3-7-2-8-4-9"
       is_visible="true"
       weight="33.333333"
       steps="2"
       helper_size="0"
       apply_no_weight="true"
       apply_with_weight="true"
       only_selected="false" />
  </defs>
  <sodipodi:namedview
     id="base"
     pagecolor="#ffffff"
     bordercolor="#666666"
     borderopacity="1.0"
     inkscape:pageopacity="0.0"
     inkscape:pageshadow="2"
     inkscape:zoom="0.49497475"
     inkscape:cx="282.04462"
     inkscape:cy="522.71295"
     inkscape:document-units="mm"
     inkscape:current-layer="layer1"
     showgrid="true"
     showguides="true"
     inkscape:guide-bbox="true"
     inkscape:window-width="1366"
     inkscape:window-height="715"
     inkscape:window-x="-8"
     inkscape:window-y="-8"
     inkscape:window-maximized="1"
     inkscape:snap-grids="true"
     fit-margin-top="0"
     fit-margin-left="0"
     fit-margin-right="0"
     fit-margin-bottom="0"
     showborder="false">
    <inkscape:grid
       type="xygrid"
       id="grid926"
       enabled="false"
       originx="-22.750839"
       originy="-49.209181" />
  </sodipodi:namedview>
  <metadata
     id="metadata5">
    <rdf:RDF>
      <cc:Work
         rdf:about="">
        <dc:format>image/svg+xml</dc:format>
        <dc:type
           rdf:resource="http://purl.org/dc/dcmitype/StillImage" />
        <dc:title></dc:title>
      </cc:Work>
    </rdf:RDF>
  </metadata>
  <g
     inkscape:label="Layer 1"
     inkscape:groupmode="layer"
     id="layer1"
     transform="translate(-22.75084,-111.25916)">
    <rect
       style="opacity:1;fill:#00222b;fill-opacity:1;stroke:#00222b;stroke-width:1.06500006;stroke-miterlimit:4;stroke-dasharray:none;stroke-opacity:1"
       id="rect837"
       width="135.46666"
       height="135.46666"
       x="23.28334"
       y="111.79166"
       rx="7.9375"
       ry="7.9375" />
    <path
       style="fill:#004455;stroke:none;stroke-width:0.57411897px;stroke-linecap:butt;stroke-linejoin:miter;stroke-opacity:1"
       d="m 33.073432,111.59159 c -3.480707,5.37988 -7.597983,10.89739 -7.597985,15.52431 -3e-6,8.00823 12.346687,13.34727 12.34705,19.57649 2.64e-4,6.22922 -12.34713,13.3487 -12.34705,20.46711 8.1e-5,7.11839 12.347219,14.23703 12.347566,21.35616 2.64e-4,7.11913 -12.34764,14.23852 -12.347566,20.46711 7.5e-5,6.22859 12.346687,11.56782 12.34705,16.90723 2.64e-4,5.3394 -12.347187,10.67864 -12.34705,16.90723 2.5e-5,1.09664 0.388335,2.22128 1.01906,3.36825 1.318773,0.98086 2.952435,1.56053 4.726326,1.56053 H 48.595999 C 48.737972,198.78083 48.339501,147.52514 47.39659,111.59159 Z"
       id="path928-6-0"
       inkscape:connector-curvature="0" />
    <rect
       style="opacity:1;fill:#004455;fill-opacity:1;stroke:none;stroke-width:0.47194245;stroke-miterlimit:4;stroke-dasharray:none;stroke-opacity:1"
       id="rect837-8"
       width="26.458334"
       height="136.20131"
       x="40.216667"
       y="111.59155"
       rx="1.5502931"
       ry="7.9805455" />
    <rect
       style="opacity:1;fill:#006680;fill-opacity:1;stroke:none;stroke-width:0.47270814;stroke-miterlimit:4;stroke-dasharray:none;stroke-opacity:1"
       id="rect837-2"
       width="26.458334"
       height="136.64357"
       x="61.383331"
       y="111.21609"
       rx="1.5502931"
       ry="8.0064602" />
    <path
       style="fill:#006680;stroke:none;stroke-width:0.52119654px;stroke-linecap:butt;stroke-linejoin:miter;stroke-opacity:1"
       d="m 56.616181,111.21609 c -3.346706,5.70157 -10.730092,12.12253 -10.730095,17.22726 -2e-6,6.59988 12.347207,10.99995 12.347567,16.13368 2.65e-4,5.13374 -12.347646,11.00089 -12.347567,16.86743 8.2e-5,5.86654 12.347221,11.73349 12.347567,17.60062 2.65e-4,5.86714 -12.347641,11.73422 -12.347567,16.86742 7.7e-5,5.13321 12.346689,9.53315 12.347051,13.93355 2.65e-4,4.4004 -12.347186,8.80086 -12.347051,13.93407 1.38e-4,5.1332 12.347221,11.00028 12.347567,16.86742 1.4e-4,2.35949 -2.003753,4.719 -4.391461,7.07847 H 68.8914 C 69.283783,199.90163 68.87362,145.64473 67.658402,111.21609 Z"
       id="path928-6-0-4"
       inkscape:connector-curvature="0" />
    <path
       style="fill:#0088aa;stroke:none;stroke-width:0.57491022px;stroke-linecap:butt;stroke-linejoin:miter;stroke-opacity:1"
       d="m 77.055243,111.21609 c 3.658423,4.03352 9.148549,8.19858 9.148797,13.55497 2.65e-4,8.03096 -12.347564,18.73956 -12.347567,26.76988 -5e-6,8.03033 12.346689,13.38409 12.347049,19.63049 2.64e-4,6.24641 -12.347131,13.38553 -12.347049,20.52356 8e-5,7.13804 12.346702,14.27632 12.347049,21.41509 2.64e-4,7.13877 -12.347123,14.27779 -12.347049,20.52356 6.1e-5,5.13513 8.340937,9.66723 11.309387,14.09237 H 97.001829 C 96.958349,193.72449 96.268806,140.49127 94.927538,111.21609 Z"
       id="path928-6-0-4-6"
       inkscape:connector-curvature="0" />
    <rect
       style="opacity:1;fill:#0088aa;fill-opacity:1;stroke:none;stroke-width:0.44451195;stroke-miterlimit:4;stroke-dasharray:none;stroke-opacity:1"
       id="rect837-4"
       width="23.400927"
       height="136.61533"
       x="87.669479"
       y="111.21609"
       rx="1.3711481"
       ry="8.0048046" />
    <path
       style="fill:#00aad4;stroke:none;stroke-width:0.71589929px;stroke-linecap:butt;stroke-linejoin:miter;stroke-opacity:1"
       d="m 104.56468,111.21609 c 0.79287,2.20647 1.2939,4.53299 1.29397,7.02828 2.7e-4,12.45293 -12.347559,29.0576 -12.347564,41.50955 -3e-6,12.45193 12.347204,20.75359 12.347564,30.43935 2.7e-4,9.68577 -12.347644,20.75532 -12.347564,31.82366 6.3e-5,8.59158 7.437194,17.18362 10.766784,25.7759 h 12.23078 c -0.23899,-53.30652 -0.75889,-102.23614 -1.56011,-136.57674 z"
       id="path928-6-0-4-6-1"
       inkscape:connector-curvature="0" />
    <rect
       style="opacity:1;fill:#00aad4;fill-opacity:1;stroke:none;stroke-width:0.45874748;stroke-miterlimit:4;stroke-dasharray:none;stroke-opacity:1"
       id="rect837-5"
       width="24.948593"
       height="136.47932"
       x="107.79773"
       y="111.21609"
       rx="1.4618317"
       ry="7.9968357" />
    <path
       style="fill:#00ccff;stroke:none;stroke-width:0.71589929px;stroke-linecap:butt;stroke-linejoin:miter;stroke-opacity:1"
       d="m 127.32039,111.21609 c 0.74865,2.14667 1.2164,4.29335 1.21646,6.44008 2.7e-4,11.06947 -12.34712,22.13939 -12.34704,31.82417 7e-5,9.68477 12.34668,17.98637 12.34704,26.28856 2.7e-4,8.30219 -12.34718,16.60431 -12.34704,26.28908 1.3e-4,9.68477 12.3467,20.75366 12.34704,31.82314 1.5e-4,4.63718 -2.16775,9.27456 -4.68601,13.91171 h 15.34221 c 0.19541,-44.53668 0.19463,-92.01618 -0.002,-136.57674 z"
       id="path928-6-0-4-6-1-3"
       inkscape:connector-curvature="0" />
    <path
       style="opacity:1;fill:#00ccff;fill-opacity:1;stroke:none;stroke-width:0.5215953;stroke-miterlimit:4;stroke-dasharray:none;stroke-opacity:1"
       d="m 134.12153,111.21609 c -0.79154,0.94699 -1.36891,4.0446 -1.36891,7.74284 V 240.1346 c 0,3.76184 0.5972,6.90438 1.40973,7.79186 h 16.65015 c 4.39737,0 7.9375,-3.57263 7.9375,-8.01037 V 119.22646 c 0,-4.43774 -3.54013,-8.01037 -7.9375,-8.01037 z"
       id="rect837-0"
       inkscape:connector-curvature="0" />
    <path
       style="fill:#55ddff;stroke:none;stroke-width:0.5824337px;stroke-linecap:butt;stroke-linejoin:miter;stroke-opacity:1"
       d="m 154.00809,112.28152 c -3.76045,6.3643 -10.09543,13.26028 -10.09543,18.84691 0,7.94284 12.81196,13.23855 12.81235,19.4169 2.8e-4,6.17836 -12.81242,13.23928 -12.81235,20.29954 1e-4,7.06028 12.81199,14.12119 12.81235,21.18216 2.8e-4,7.06101 -12.81242,14.12181 -12.81235,20.29954 1e-4,6.17772 12.81199,11.47321 12.81235,16.769 2.8e-4,5.29581 -12.81249,10.5918 -12.81235,16.76952 1e-5,0.45963 0.0723,0.92416 0.20359,1.3932 h 7.00697 c 4.5954,0 8.29495,-3.54013 8.29495,-7.9375 V 119.72912 c 0,-3.42564 -2.24526,-6.33082 -5.41008,-7.4476 z"
       id="path928-6"
       inkscape:connector-curvature="0" />
    <path
       style="opacity:0.28699999;fill:#000000;fill-opacity:1;stroke:#000000;stroke-width:4.02519703;stroke-miterlimit:4;stroke-dasharray:none;stroke-opacity:1"
       d="m 274.3125,489.36719 -1.42773,358.89843 124.76562,86.25391 H 570 c 16.62,0 30,-13.38 30,-30 V 559.20508 l -185.23828,-69.83789 -0.21094,52.87109 z"
       id="rect1287"
       inkscape:connector-curvature="0"
       transform="scale(0.26458333)" />
    <g
       id="g914"
       transform="translate(4.5357114,4.5357148)">
      <path
         sodipodi:nodetypes="ccccccccccc"
         inkscape:connector-curvature="0"
         id="rect815-5"
         d="m 68.043028,124.94269 v 0 0 l 10.58333,12.93764 v 67.65773 l -10.96131,14.36309 v 0 0 l -9.449403,-13.60713 v -68.79167 z"
         style="opacity:1;fill:#ff6600;fill-opacity:1;stroke:#ff6600;stroke-width:1.24783945;stroke-miterlimit:4;stroke-dasharray:none;stroke-opacity:1" />
      <path
         sodipodi:nodetypes="ccccccccccc"
         inkscape:connector-curvature="0"
         id="rect815"
         d="m 105.20321,124.94269 v 0 0 l 10.58333,12.93764 v 67.65773 l -10.96131,14.36309 v 0 0 l -9.449402,-13.60713 v -68.79167 z"
         style="opacity:1;fill:#ff6600;fill-opacity:1;stroke:#ff6600;stroke-width:1.24783945;stroke-miterlimit:4;stroke-dasharray:none;stroke-opacity:1" />
      <rect
         y="144.65637"
         x="67.820656"
         height="6.3499999"
         width="39.6875"
         id="rect854"
         style="opacity:1;fill:#000000;fill-opacity:1;stroke:#000000;stroke-width:1.06500006;stroke-miterlimit:4;stroke-dasharray:none;stroke-opacity:1" />
      <rect
         y="191.19351"
         x="67.820656"
         height="6.3499999"
         width="39.6875"
         id="rect854-9"
         style="opacity:1;fill:#000000;fill-opacity:1;stroke:#000000;stroke-width:1.06500006;stroke-miterlimit:4;stroke-dasharray:none;stroke-opacity:1" />
      <circle
         r="8.4189901"
         cy="193.83397"
         cx="87.129875"
         id="path871-8"
         style="opacity:1;fill:#f9f9f9;fill-opacity:1;stroke:#000000;stroke-width:1.06500006;stroke-miterlimit:4;stroke-dasharray:none;stroke-opacity:1" />
      <rect
         y="168.74286"
         x="67.820656"
         height="6.3499999"
         width="39.6875"
         id="rect854-0"
         style="opacity:1;fill:#000000;fill-opacity:1;stroke:#000000;stroke-width:1.06500006;stroke-miterlimit:4;stroke-dasharray:none;stroke-opacity:1" />
      <rect
         y="141.7164"
         x="73.499123"
         height="36.348656"
         width="26.726952"
         id="rect888"
         style="opacity:1;fill:#b7c8b7;fill-opacity:1;stroke:#b7c8b7;stroke-width:1.06500006;stroke-miterlimit:4;stroke-dasharray:none;stroke-opacity:1" />
    </g>
    <path
       style="opacity:0.47600002;fill:#000000;fill-opacity:1;stroke:#000000;stroke-width:4.02519703;stroke-miterlimit:4;stroke-dasharray:none;stroke-opacity:1"
       d="M 395.94922,552.76367 V 690.14453 H 294.93555 l 159.82617,103.83594 1.1875,-189.78711 z"
       transform="scale(0.26458333)"
       id="rect1323"
       inkscape:connector-curvature="0" />
  </g>
</svg>
